<svg width="112" height="30" viewBox="0 0 112 30" fill="none" xmlns="http://www.w3.org/2000/svg">
<path d="M42.755 21.015C42.7236 21.2396 42.6995 21.4231 42.6729 21.6307C41.451 21.6307 40.2485 21.6307 39 21.6307C39 15.5557 39 9.51207 39 3.42496C40.2219 3.42496 41.439 3.42496 42.7116 3.42496C42.7116 5.59806 42.7116 7.73253 42.7116 9.9491C44.1894 9.0871 45.6746 8.82875 47.2635 9.2851C48.5796 9.66418 49.6228 10.4175 50.4028 11.5258C52.0617 13.8848 52.0787 17.6733 49.7387 20.0951C47.988 21.9084 45.025 22.3527 42.755 21.015ZM42.2214 15.476C42.2238 16.635 42.6319 17.596 43.4505 18.3638C44.3005 19.1607 45.4741 19.2234 46.4062 18.5208C48.0942 17.2459 48.314 14.3388 46.8385 12.779C45.7108 11.5862 44.2305 11.5958 43.1583 12.8417C42.516 13.5903 42.1851 14.474 42.2214 15.476Z" fill="white"/>
<path d="M79.6463 21.6138C79.6463 15.5267 79.6463 9.49999 79.6463 3.42737C80.8899 3.42737 82.107 3.42737 83.3724 3.42737C83.3724 6.36106 83.3724 9.26578 83.3724 12.3347C83.7032 12.0594 83.9302 11.8735 84.1524 11.6803C84.983 10.956 85.8065 10.2195 86.6469 9.50482C86.8087 9.36719 87.0356 9.22956 87.2361 9.22714C88.9434 9.20541 90.6506 9.21507 92.5632 9.21507C90.4647 10.9656 88.499 12.6075 86.5092 14.2687C88.499 16.7002 90.4719 19.1124 92.5583 21.6621C91.73 21.6621 91.0539 21.667 90.3802 21.6597C89.5277 21.6501 88.5594 21.8794 87.8591 21.5462C87.1805 21.2251 86.7773 20.3245 86.2605 19.675C85.4805 18.6995 84.7053 17.7216 83.9278 16.7437C83.9012 16.7123 83.8674 16.6881 83.6911 16.5312C83.5776 16.8378 83.4158 17.0817 83.411 17.328C83.3869 18.7405 83.3989 20.153 83.3989 21.6138C82.1384 21.6138 80.9237 21.6138 79.6463 21.6138Z" fill="white"/>
<path d="M98.7426 9.21509C100.001 9.21509 101.165 9.19819 102.329 9.23441C102.495 9.23924 102.72 9.48794 102.799 9.67386C103.517 11.352 104.207 13.0398 104.908 14.7251C104.985 14.911 105.072 15.0945 105.2 15.3795C105.999 13.4768 106.782 11.6804 107.504 9.86219C107.706 9.35031 107.96 9.17646 108.503 9.2006C109.522 9.24648 110.544 9.21268 111.616 9.21268C111.577 9.37928 111.568 9.51691 111.517 9.63522C109.527 14.2953 107.559 18.9651 105.516 23.601C105.079 24.5934 104.449 25.5351 103.758 26.3778C102.505 27.9086 100.744 28.0945 99.0734 27.0056C98.0978 26.3705 98.0978 26.3706 98.4939 25.2743C98.7257 24.6321 98.9551 23.9874 99.1869 23.3451C99.1918 23.3306 99.2135 23.321 99.228 23.3065C99.5347 23.4779 99.8269 23.6783 100.146 23.8208C100.923 24.1636 101.524 24.0719 101.908 23.3234C102.445 22.2803 102.821 21.1527 103.227 20.0468C103.282 19.8947 103.138 19.6581 103.06 19.4721C101.715 16.2777 100.365 13.088 99.0155 9.896C98.9334 9.71008 98.8633 9.51933 98.7426 9.21509Z" fill="white"/>
<path d="M63.8533 21.6332C62.6145 21.6332 61.4337 21.6332 60.2094 21.6332C60.1756 21.4038 60.1418 21.1865 60.1176 21.032C59.4028 21.2807 58.7098 21.6187 57.9805 21.7563C56.72 21.9954 55.4619 21.8094 54.351 21.1744C52.9432 20.368 52.383 18.7261 52.7983 17.0455C53.2185 15.3481 54.3849 14.3847 55.9883 13.9621C56.8625 13.7327 57.7922 13.7134 58.7001 13.6313C59.1493 13.5903 59.6081 13.6241 60.0573 13.6241C60.0862 12.9239 59.7578 12.3999 59.1565 12.2502C58.2365 12.0208 57.3454 12.0691 56.5268 12.6414C56.3795 12.7452 56.0897 12.7983 55.9424 12.7235C55.1334 12.3057 54.3486 11.8421 53.4841 11.3544C54.124 10.4876 54.9668 9.95395 55.8796 9.59418C57.8139 8.82876 59.794 8.7853 61.7042 9.67145C63.0444 10.2944 63.8582 11.3785 63.8751 12.8997C63.9065 15.6861 63.8872 18.4749 63.8872 21.2638C63.8944 21.3628 63.8727 21.4642 63.8533 21.6332ZM60.0886 16.4153C59.1565 16.4733 58.2437 16.4636 57.3575 16.6085C56.6813 16.7196 56.4085 17.258 56.4495 17.9582C56.4857 18.6005 56.9132 18.8395 57.4565 18.9554C59.2531 19.3442 60.3156 18.3832 60.0886 16.4153Z" fill="white"/>
<path d="M77.6227 21.6332C76.3767 21.6332 75.1958 21.6332 73.916 21.6332C73.916 21.3676 73.916 21.1261 73.916 20.8847C73.9039 18.5739 73.9136 16.2632 73.8725 13.9549C73.8459 12.5134 73.2109 11.8663 71.9527 11.8687C70.5594 11.8735 69.6587 12.7066 69.6418 14.1046C69.6104 16.3719 69.6273 18.6415 69.6248 20.9112C69.6248 21.1358 69.6248 21.3579 69.6248 21.6211C68.3571 21.6211 67.1569 21.6211 65.9084 21.6211C65.9084 17.4995 65.9084 13.3947 65.9084 9.25131C67.1231 9.25131 68.3233 9.25131 69.5886 9.25131C69.6079 9.56762 69.6297 9.89117 69.6538 10.2703C70.0909 10.0143 70.4918 9.73906 70.924 9.53623C72.3633 8.86499 73.8363 8.91569 75.2948 9.45414C76.466 9.88876 77.1349 10.7942 77.3837 11.987C77.5285 12.6727 77.6251 13.3826 77.6372 14.0829C77.671 16.4346 77.6589 18.7864 77.6614 21.1382C77.6589 21.2831 77.6372 21.4255 77.6227 21.6332Z" fill="white"/>
<path d="M97.1224 21.6283C95.8691 21.6283 94.669 21.6283 93.4277 21.6283C93.4277 15.4108 93.4277 9.22715 93.4277 3C94.6496 3 95.8643 3 97.1224 3C97.1224 9.19335 97.1224 15.3795 97.1224 21.6283Z" fill="white"/>
<path d="M30.0576 15.0604C29.99 23.3737 23.1753 30.079 14.8756 29.9993C6.63143 29.922 -0.0551973 23.1226 0.000343515 14.8769C0.0558843 6.63117 6.91397 -0.0837206 15.1871 0.000789045C23.4144 0.0877133 30.1252 6.88229 30.0576 15.0604ZM7.80262 13.037C12.5019 13.037 17.0948 13.037 21.7772 13.037C21.7772 17.6223 21.7772 22.1592 21.7772 26.8217C22.2191 26.532 22.533 26.2978 22.8735 26.1119C23.3878 25.8318 23.5496 25.4382 23.54 24.849C23.5062 22.2486 23.5255 19.6481 23.5255 17.0476C23.5255 16.5719 23.5255 16.0987 23.5255 15.5337C25.2545 15.5337 26.928 15.5337 28.6763 15.5337C28.6449 10.1951 26.4861 6.10239 22.0186 3.32805C17.5681 0.563382 11.4659 0.79035 7.33656 3.77233C3.34728 6.65049 1.38403 10.55 1.39128 15.5651C3.07199 15.5651 4.66094 15.5651 6.2837 15.5651C6.2837 15.8838 6.2837 16.1107 6.2837 16.3377C6.2837 19.2086 6.27404 22.0795 6.3006 24.9504C6.30302 25.2088 6.47688 25.5203 6.66765 25.7086C6.96709 26.0032 7.35105 26.2133 7.80262 26.532C7.80262 21.9636 7.80262 17.5233 7.80262 13.037ZM17.5899 28.3815C18.1139 28.2367 18.5437 28.0846 18.9856 28.0049C19.5241 27.9083 19.6449 27.621 19.6425 27.1042C19.6207 23.4679 19.6304 19.8316 19.6304 16.1928C19.6304 15.9755 19.6304 15.7582 19.6304 15.553C18.8866 15.553 18.2515 15.553 17.5899 15.553C17.5899 19.8292 17.5899 24.0619 17.5899 28.3815ZM15.8681 28.5699C15.8681 24.1971 15.8681 19.8847 15.8681 15.5602C15.1992 15.5602 14.5689 15.5602 13.9556 15.5602C13.9556 19.9185 13.9556 24.2285 13.9556 28.5699C14.6052 28.5699 15.204 28.5699 15.8681 28.5699ZM12.2217 28.2608C12.2217 23.9991 12.2217 19.7688 12.2217 15.5578C11.5504 15.5578 10.9346 15.5578 10.2754 15.5578C10.2754 15.8476 10.2754 16.0938 10.2754 16.3425C10.2754 19.6094 10.2754 22.8739 10.2754 26.1408C10.2754 27.9856 10.2754 27.9856 12.1348 28.2729C12.1541 28.2729 12.1734 28.2656 12.2217 28.2608Z" fill="#89FF99"/>
<path d="M6.68453 11.6922C6.68453 11.2721 6.64831 10.8954 6.69902 10.5332C6.72558 10.3545 6.87772 10.1058 7.03468 10.0455C9.51711 9.0893 12.0068 8.15004 14.5013 7.23009C14.7066 7.15524 14.9939 7.1818 15.204 7.26148C17.5585 8.14521 19.9008 9.06274 22.2601 9.93198C22.7165 10.101 22.8855 10.3207 22.8276 10.7867C22.7938 11.0692 22.8203 11.3614 22.8203 11.6922C17.4377 11.6922 12.1106 11.6922 6.68453 11.6922Z" fill="#89FF99"/>
</svg>
