<?xml version="1.0" encoding="utf-8"?>
<!-- Generator: Adobe Illustrator 25.3.1, SVG Export Plug-In . SVG Version: 6.00 Build 0)  -->
<svg version="1.1" id="Layer_1" xmlns="http://www.w3.org/2000/svg" xmlns:xlink="http://www.w3.org/1999/xlink" x="0px" y="0px"
	 viewBox="0 0 75.9 31" style="enable-background:new 0 0 75.9 31;" xml:space="preserve">
<style type="text/css">
	.st0{fill-rule:evenodd;clip-rule:evenodd;fill:#FFFFFF;}
</style>
<path class="st0" d="M6.6,26.6h7.1c2.2,0,3.9-1.8,3.9-3.9v-5.4c0-2.2-1.8-3.9-3.9-3.9H6.6c-1.2,0-2.2,1-2.2,2.2v8.9
	C4.4,25.6,5.4,26.6,6.6,26.6z M4.4,2.2v4.4c0,1.2,1,2.2,2.2,2.2h8.9c3.7,0,6.7,3,6.7,6.7v8.8c0,3.7-3,6.7-6.7,6.7H2.2
	C1,31,0,30,0,28.8V2.2C0,1,1,0,2.2,0S4.4,1,4.4,2.2z M61.6,26.6h7.1c1.2,0,2.2-1,2.2-2.2v-8.9c0-1.2-1-2.2-2.2-2.2h-7.1
	c-2.2,0-3.9,1.8-3.9,3.9v5.4C57.6,24.8,59.4,26.6,61.6,26.6z M70.9,6.6V2.2c0-1.2,1-2.2,2.2-2.2c1.2,0,2.2,1,2.2,2.2v26.6
	c0,1.2-1,2.2-2.2,2.2H59.8c-3.7,0-6.7-3-6.7-6.7v-8.8c0-3.7,3-6.7,6.7-6.7h8.9C69.9,8.9,70.9,7.9,70.9,6.6z M42.1,26.6h-8.9
	c-1.2,0-2.2-1-2.2-2.2V11.1c0-1.2-1-2.2-2.2-2.2c-1.2,0-2.2,1-2.2,2.2v17.7c0,1.2,1,2.2,2.2,2.2h17.7c1.2,0,2.2-1,2.2-2.2V11.1
	c0-1.2-1-2.2-2.2-2.2c-1.2,0-2.2,1-2.2,2.2v13.3C44.3,25.6,43.3,26.6,42.1,26.6z"/>
</svg>
